<svg width="239" height="59" viewBox="0 0 239 59" fill="none" xmlns="http://www.w3.org/2000/svg">
<path d="M36.5665 39.64C35.8838 39.64 35.2652 39.4907 34.7105 39.192C34.1558 38.936 33.8785 38.3387 33.8785 37.4C33.8785 36.5893 34.3052 35.416 35.1585 33.88C36.0118 32.344 37.1638 30.5947 38.6145 28.632C40.0652 26.6267 41.6652 24.536 43.4145 22.36C45.2065 20.184 47.0412 18.072 48.9185 16.024C50.7958 13.9333 52.5878 12.0133 54.2945 10.264C56.0012 8.472 57.5158 6.97866 58.8385 5.784C60.1612 4.58933 61.1425 3.84266 61.7825 3.544C61.9958 3.45866 62.1452 3.45866 62.2305 3.544C62.3158 3.58666 62.2092 3.672 61.9105 3.8C60.6305 4.39733 59.0732 5.42133 57.2385 6.872C55.4465 8.28 53.4838 9.96533 51.3505 11.928C49.2598 13.8907 47.1052 15.9813 44.8865 18.2C42.6678 20.4187 40.5132 22.6373 38.4225 24.856C36.3745 27.032 34.4545 29.08 32.6625 31C30.9132 32.8773 29.4198 34.4987 28.1825 35.864C26.9452 37.2293 26.0918 38.168 25.6225 38.68C25.0678 39.2347 24.5985 39.448 24.2145 39.32C23.8305 39.192 23.6385 38.7227 23.6385 37.912C23.6385 36.8027 23.9798 35.416 24.6625 33.752C25.3452 32.088 26.2625 30.2747 27.4145 28.312C28.5665 26.3493 29.8465 24.344 31.2545 22.296C32.6625 20.248 34.0705 18.264 35.4785 16.344C36.9292 14.3813 38.2945 12.6107 39.5745 11.032C40.8972 9.45333 42.0065 8.152 42.9025 7.128C43.8412 6.06133 44.4598 5.4 44.7585 5.144C44.9292 5.016 45.2065 4.93067 45.5905 4.888C45.9745 4.84533 45.9958 4.93066 45.6545 5.144C44.8012 5.57066 43.6278 6.50933 42.1345 7.96C40.6412 9.41066 38.9345 11.1813 37.0145 13.272C35.0945 15.32 33.0252 17.5387 30.8065 19.928C28.6305 22.3173 26.3692 24.664 24.0225 26.968C21.6758 29.272 19.3505 31.384 17.0465 33.304C14.7852 35.1813 12.6092 36.696 10.5185 37.848C8.42783 39 6.52917 39.576 4.8225 39.576C3.11583 39.576 1.92117 39.2773 1.2385 38.68C0.555833 38.04 0.214499 37.4 0.214499 36.76C0.214499 35.9067 0.449166 35.288 0.9185 34.904C1.38783 34.4773 1.83583 34.264 2.2625 34.264C3.24383 34.264 3.7345 34.6053 3.7345 35.288C3.7345 35.8 3.56383 36.1627 3.2225 36.376C2.88117 36.5467 2.60383 36.632 2.3905 36.632C2.0065 36.632 1.70783 36.5893 1.4945 36.504C1.28117 36.376 1.1745 36.312 1.1745 36.312C1.1745 36.3973 1.21717 36.6533 1.3025 37.08C1.34517 37.5067 1.6225 37.9333 2.1345 38.36C2.60383 38.744 3.45717 38.936 4.6945 38.936C6.44383 38.936 8.38517 38.3173 10.5185 37.08C12.6945 35.8 14.9772 34.136 17.3665 32.088C19.7985 30.04 22.2305 27.7787 24.6625 25.304C27.1372 22.7867 29.5265 20.2693 31.8305 17.752C34.1345 15.2347 36.2892 12.9093 38.2945 10.776C40.2998 8.64267 42.0492 6.89333 43.5425 5.528C45.0358 4.12 46.1665 3.33066 46.9345 3.16C47.5318 3.032 47.8305 3.032 47.8305 3.16C47.8305 3.288 47.7238 3.45866 47.5105 3.672C46.9558 4.09866 46.1878 4.952 45.2065 6.232C44.2252 7.46933 43.1158 9.00533 41.8785 10.84C40.6412 12.632 39.3185 14.5947 37.9105 16.728C36.5452 18.8613 35.1798 21.016 33.8145 23.192C32.4492 25.368 31.1692 27.4587 29.9745 29.464C28.8225 31.4267 27.8198 33.176 26.9665 34.712C26.1132 36.248 25.5158 37.4213 25.1745 38.232C25.1318 38.3173 24.9612 38.4453 24.6625 38.616C24.3638 38.7867 24.2358 38.8507 24.2785 38.808C24.3212 38.7653 24.7905 38.232 25.6865 37.208C26.5825 36.184 27.7772 34.84 29.2705 33.176C30.8065 31.4693 32.5558 29.592 34.5185 27.544C36.4812 25.4533 38.5505 23.2987 40.7265 21.08C42.9025 18.8613 45.0572 16.7067 47.1905 14.616C49.3665 12.4827 51.4358 10.584 53.3985 8.92C55.3612 7.21333 57.0892 5.82666 58.5825 4.76C60.1185 3.69333 61.3132 3.11733 62.1665 3.032C62.6358 2.94667 62.8492 3.01067 62.8065 3.224C62.8065 3.39467 62.7212 3.52267 62.5505 3.608C61.6118 4.16267 60.4385 5.18667 59.0305 6.68C57.6225 8.13067 56.0865 9.85867 54.4225 11.864C52.7585 13.8693 51.0518 16.0027 49.3025 18.264C47.5532 20.5253 45.8678 22.7653 44.2465 24.984C42.6678 27.2027 41.2385 29.2507 39.9585 31.128C38.7212 32.9627 37.7185 34.4987 36.9505 35.736C36.2252 36.9307 35.8625 37.656 35.8625 37.912C35.8625 38.2107 36.0118 38.4667 36.3105 38.68C36.6518 38.8933 37.0358 39 37.4625 39C38.4438 39 39.4038 38.7653 40.3425 38.296C41.3238 37.8267 42.1558 37.3573 42.8385 36.888C43.5212 36.376 43.8838 36.0987 43.9265 36.056C44.1398 35.7573 44.3532 35.7787 44.5665 36.12C44.7798 36.4613 44.6518 36.7387 44.1825 36.952C44.1825 36.952 43.7985 37.1867 43.0305 37.656C42.3052 38.0827 41.3665 38.5307 40.2145 39C39.0625 39.4267 37.8465 39.64 36.5665 39.64ZM62.5095 22.68C64.6428 22.68 65.7095 23.704 65.7095 25.752C65.7095 27.3307 65.3468 28.952 64.6215 30.616C63.8962 32.2373 62.9148 33.7307 61.6775 35.096C60.4402 36.4187 59.0962 37.5067 57.6455 38.36C56.1948 39.1707 54.7228 39.576 53.2295 39.576C52.0775 39.576 51.1175 39.2987 50.3495 38.744C49.5388 38.1467 49.1335 37.1867 49.1335 35.864C49.1335 34.6267 49.4962 33.2613 50.2215 31.768C50.9468 30.232 51.9282 28.7813 53.1655 27.416C54.4455 26.0507 55.8748 24.92 57.4535 24.024C59.0748 23.128 60.7602 22.68 62.5095 22.68ZM63.2135 23.576C62.4882 23.576 61.6348 23.896 60.6535 24.536C59.6722 25.176 58.6695 26.008 57.6455 27.032C56.6215 28.056 55.6615 29.1653 54.7655 30.36C53.9122 31.512 53.2082 32.6427 52.6535 33.752C52.1415 34.8613 51.8855 35.8 51.8855 36.568C51.8855 37.4213 52.1202 38.0187 52.5895 38.36C53.0588 38.6587 53.5922 38.808 54.1895 38.808C55.1708 38.808 56.2802 38.4027 57.5175 37.592C58.7548 36.7387 59.9495 35.672 61.1015 34.392C62.2535 33.112 63.1922 31.768 63.9175 30.36C64.6855 28.9093 65.0695 27.5867 65.0695 26.392C65.0695 25.2827 64.8775 24.536 64.4935 24.152C64.1095 23.768 63.6828 23.576 63.2135 23.576ZM64.3655 30.168C64.5788 30.168 64.6642 30.2533 64.6215 30.424C64.6215 30.552 64.5148 30.616 64.3015 30.616C64.1308 30.616 63.8748 30.8507 63.5335 31.32C63.2348 31.7467 62.9575 32.1947 62.7015 32.664C62.4455 33.1333 62.3175 33.3893 62.3175 33.432C62.3175 34.4133 62.6802 34.904 63.4055 34.904C64.0882 34.904 64.8562 34.584 65.7095 33.944C66.6055 33.304 67.4588 32.5787 68.2695 31.768C69.1228 30.9147 69.8055 30.168 70.3175 29.528L70.8295 29.976C70.2748 30.616 69.5708 31.384 68.7175 32.28C67.8642 33.1333 66.9682 33.9013 66.0295 34.584C65.0908 35.224 64.2162 35.544 63.4055 35.544C62.7228 35.544 62.2535 35.3947 61.9975 35.096C61.7415 34.7973 61.6135 34.264 61.6135 33.496C61.6135 32.472 61.9548 31.6613 62.6375 31.064C63.3628 30.4667 63.9388 30.168 64.3655 30.168ZM83.254 39.576C80.9927 39.576 79.862 38.9147 79.862 37.592C79.862 36.7387 80.1393 35.8213 80.694 34.84C81.2913 33.8587 82.0167 32.8773 82.87 31.896C83.7233 30.872 84.5767 29.8693 85.43 28.888C86.326 27.9067 87.0513 27.0107 87.606 26.2C88.2033 25.3467 88.502 24.6213 88.502 24.024C88.502 23.8107 88.3953 23.64 88.182 23.512C88.0113 23.3413 87.7553 23.256 87.414 23.256C86.902 23.256 86.1767 23.512 85.238 24.024C84.342 24.536 83.19 25.4107 81.782 26.648C80.4167 27.8427 78.7953 29.464 76.918 31.512C75.0407 33.5173 72.886 36.0347 70.454 39.064C70.07 38.9787 69.494 38.936 68.726 38.936C67.958 38.936 67.2967 39.0213 66.742 39.192C67.9793 37.4 69.1953 35.6507 70.39 33.944C71.5847 32.2373 72.6727 30.68 73.654 29.272C74.678 27.864 75.4887 26.712 76.086 25.816C76.6833 24.8773 76.982 24.3013 76.982 24.088C76.982 23.704 76.79 23.512 76.406 23.512C75.9793 23.512 75.446 23.8533 74.806 24.536C74.166 25.176 73.462 26.008 72.694 27.032C71.926 28.0133 71.1367 29.016 70.326 30.04L69.75 29.656C70.6033 28.6747 71.4353 27.6507 72.246 26.584C73.0567 25.5173 73.8887 24.6 74.742 23.832C75.5953 23.064 76.4913 22.68 77.43 22.68C77.8993 22.68 78.326 22.808 78.71 23.064C79.1367 23.2773 79.35 23.64 79.35 24.152C79.35 24.6213 79.158 25.1973 78.774 25.88C78.4327 26.52 77.9633 27.2667 77.366 28.12C76.7687 28.9307 76.086 29.848 75.318 30.872C74.5927 31.8533 73.8247 32.92 73.014 34.072L73.078 34.456C75.3393 31.9813 77.238 29.976 78.774 28.44C80.3527 26.904 81.654 25.7307 82.678 24.92C83.7447 24.0667 84.662 23.4907 85.43 23.192C86.2407 22.8507 87.0087 22.68 87.734 22.68C88.7153 22.68 89.4193 22.8933 89.846 23.32C90.2727 23.704 90.486 24.2373 90.486 24.92C90.486 25.944 90.1873 27.032 89.59 28.184C88.9927 29.2933 88.246 30.4027 87.35 31.512C86.4967 32.5787 85.622 33.5813 84.726 34.52C83.8727 35.416 83.1473 36.184 82.55 36.824C81.9527 37.464 81.654 37.8907 81.654 38.104C81.654 38.36 81.718 38.552 81.846 38.68C82.0167 38.808 82.422 38.872 83.062 38.872C84.6407 38.872 86.134 38.3813 87.542 37.4C88.9927 36.4187 90.3793 35.224 91.702 33.816C93.0247 32.3653 94.262 30.936 95.414 29.528L95.926 29.976C94.774 31.3413 93.5153 32.7707 92.15 34.264C90.7847 35.7573 89.3553 37.016 87.862 38.04C86.3687 39.064 84.8327 39.576 83.254 39.576ZM97.8205 39.576C95.8152 39.576 94.4925 39.128 93.8525 38.232C93.2125 37.2933 92.8925 36.312 92.8925 35.288C92.8925 33.5387 93.3405 31.9173 94.2365 30.424C95.1325 28.888 96.2845 27.5227 97.6925 26.328C99.1005 25.1333 100.551 24.216 102.045 23.576C103.581 22.8933 104.946 22.552 106.141 22.552C106.994 22.552 107.677 22.68 108.189 22.936C108.701 23.1493 108.957 23.6187 108.957 24.344C108.957 25.0267 108.551 25.752 107.741 26.52C106.93 27.288 105.906 28.0347 104.669 28.76C103.431 29.4427 102.13 30.0827 100.765 30.68C99.4418 31.2347 98.2258 31.6827 97.1165 32.024C96.0072 32.3653 95.1965 32.536 94.6845 32.536C94.6845 32.536 94.6845 32.4293 94.6845 32.216C94.6845 31.96 94.6845 31.832 94.6845 31.832C95.0685 31.8747 95.7298 31.7467 96.6685 31.448C97.6498 31.1493 98.7378 30.7653 99.9325 30.296C101.127 29.784 102.279 29.208 103.389 28.568C104.541 27.928 105.479 27.2453 106.205 26.52C106.973 25.7947 107.357 25.0907 107.357 24.408C107.357 24.0667 107.25 23.768 107.037 23.512C106.866 23.256 106.546 23.128 106.077 23.128C105.394 23.128 104.562 23.4693 103.581 24.152C102.642 24.792 101.682 25.6453 100.701 26.712C99.7192 27.7787 98.8018 28.9093 97.9485 30.104C97.0952 31.2987 96.3912 32.4507 95.8365 33.56C95.3245 34.6267 95.0685 35.5227 95.0685 36.248C95.0685 37.1013 95.3245 37.7413 95.8365 38.168C96.3485 38.5947 97.0952 38.808 98.0765 38.808C99.7832 38.808 101.383 38.4027 102.877 37.592C104.413 36.7387 105.799 35.7573 107.037 34.648C108.274 33.496 109.319 32.4293 110.173 31.448C111.026 30.424 111.602 29.7627 111.901 29.464C111.901 29.464 111.965 29.528 112.093 29.656C112.263 29.784 112.349 29.848 112.349 29.848C112.05 30.1893 111.474 30.872 110.621 31.896C109.767 32.92 108.701 34.0293 107.421 35.224C106.141 36.4187 104.69 37.4427 103.069 38.296C101.447 39.1493 99.6978 39.576 97.8205 39.576ZM117.65 22.744C118.247 22.9147 118.866 23 119.506 23C120.146 22.9573 120.807 22.9147 121.49 22.872C120.338 23.9813 119.037 25.304 117.586 26.84C116.178 28.3333 114.813 29.848 113.49 31.384C112.21 32.8773 111.143 34.2213 110.29 35.416C109.437 36.568 109.01 37.3573 109.01 37.784C109.01 38.0827 109.117 38.36 109.33 38.616C109.543 38.8293 109.906 38.936 110.418 38.936C111.911 38.936 113.447 38.488 115.026 37.592C116.647 36.696 118.205 35.5653 119.698 34.2C121.234 32.792 122.663 31.3413 123.986 29.848C125.309 28.312 126.461 26.9253 127.442 25.688C128.466 24.408 129.213 23.4693 129.682 22.872C130.023 22.9573 130.578 23 131.346 23C132.157 23 132.711 22.9787 133.01 22.936C128.615 28.2267 124.754 33.0907 121.426 37.528C118.141 41.9227 115.175 45.6987 112.53 48.856C109.885 52.056 107.367 54.5307 104.978 56.28C102.546 58.0293 100.007 58.904 97.362 58.904C95.7407 58.904 94.93 58.264 94.93 56.984C94.93 56.0453 95.5273 55.064 96.722 54.04C97.874 53.016 99.4313 51.9493 101.394 50.84C103.357 49.7733 105.533 48.7067 107.922 47.64C110.311 46.5733 112.743 45.5493 115.218 44.568C118.461 43.288 121.127 41.88 123.218 40.344C125.351 38.8507 127.207 37.208 128.786 35.416C130.407 33.624 132.05 31.6613 133.714 29.528L134.226 29.848C132.519 32.024 130.834 34.0293 129.17 35.864C127.506 37.656 125.607 39.32 123.474 40.856C121.341 42.392 118.653 43.8213 115.41 45.144C112.978 46.1253 110.61 47.128 108.306 48.152C105.959 49.2187 103.847 50.2427 101.97 51.224C100.05 52.248 98.5353 53.2507 97.426 54.232C96.274 55.2133 95.698 56.1307 95.698 56.984C95.698 57.496 95.8687 57.816 96.21 57.944C96.5513 58.1147 96.9993 58.2 97.554 58.2C98.8767 58.2 100.306 57.688 101.842 56.664C103.335 55.64 104.914 54.2533 106.578 52.504C108.242 50.7547 109.927 48.7707 111.634 46.552C113.383 44.376 115.154 42.1147 116.946 39.768C118.738 37.4213 120.551 35.1387 122.386 32.92L122.13 32.792C122.045 32.92 121.746 33.24 121.234 33.752C120.722 34.264 120.061 34.84 119.25 35.48C118.439 36.12 117.522 36.76 116.498 37.4C115.474 38.04 114.386 38.5733 113.234 39C112.125 39.384 110.994 39.576 109.842 39.576C109.031 39.576 108.413 39.384 107.986 39C107.517 38.6587 107.282 38.168 107.282 37.528C107.282 36.504 107.623 35.352 108.306 34.072C108.989 32.7493 109.885 31.4053 110.994 30.04C112.061 28.6747 113.191 27.352 114.386 26.072C115.581 24.792 116.669 23.6827 117.65 22.744ZM136.196 39.576C134.574 39.576 133.145 39.256 131.907 38.616C130.67 37.976 130.051 37.1227 130.051 36.056C130.051 35.3733 130.329 34.8613 130.883 34.52C131.438 34.136 131.907 33.944 132.291 33.944C132.675 33.944 132.974 34.0507 133.188 34.264C133.444 34.4773 133.572 34.7333 133.572 35.032C133.572 35.416 133.444 35.736 133.188 35.992C132.889 36.2053 132.569 36.312 132.227 36.312C131.843 36.312 131.545 36.2693 131.331 36.184C131.118 36.056 131.011 35.992 131.011 35.992C131.011 36.3333 131.118 36.7387 131.331 37.208C131.502 37.6773 131.971 38.0827 132.739 38.424C133.508 38.7653 134.702 38.936 136.324 38.936C137.988 38.936 139.609 38.424 141.188 37.4C142.766 36.3333 144.281 35.0107 145.732 33.432C147.225 31.8107 148.654 30.104 150.02 28.312C151.385 26.52 152.686 24.856 153.924 23.32C155.204 21.784 156.441 20.6107 157.636 19.8C158.105 19.4587 158.489 19.2027 158.788 19.032C159.129 18.8187 159.193 18.8187 158.98 19.032C158.596 19.416 157.87 20.0133 156.804 20.824C155.737 21.6347 154.478 22.4667 153.028 23.32C151.62 24.1733 150.169 24.92 148.676 25.56C147.182 26.1573 145.796 26.456 144.516 26.456C143.193 26.456 142.254 26.3067 141.7 26.008C141.188 25.6667 140.932 24.8987 140.932 23.704C140.932 22.04 141.444 20.2907 142.468 18.456C143.534 16.6213 144.921 14.8507 146.628 13.144C148.377 11.4373 150.276 9.90133 152.324 8.536C154.372 7.128 156.398 6.01867 158.404 5.208C160.409 4.39733 162.222 3.992 163.844 3.992C165.038 3.992 165.828 4.20533 166.212 4.632C166.638 5.05867 166.852 5.63467 166.852 6.36C166.852 7.46933 166.254 8.74933 165.06 10.2C163.908 11.608 162.35 13.0373 160.388 14.488C158.468 15.896 156.292 17.1973 153.86 18.392C151.47 19.5867 149.038 20.568 146.564 21.336C144.089 22.0613 141.742 22.424 139.524 22.424C137.817 22.424 136.473 22.232 135.492 21.848C134.51 21.464 133.913 21.1867 133.7 21.016C133.401 20.8027 133.316 20.6533 133.444 20.568C133.614 20.4827 133.785 20.504 133.956 20.632C134.126 20.76 134.66 21.016 135.556 21.4C136.494 21.7413 137.817 21.912 139.524 21.912C141.7 21.912 144.004 21.4853 146.436 20.632C148.91 19.7787 151.3 18.6907 153.604 17.368C155.95 16.0027 158.084 14.5733 160.004 13.08C161.924 11.5867 163.438 10.2 164.548 8.92C165.7 7.64 166.276 6.65867 166.276 5.976C166.276 5.50667 166.041 5.16533 165.572 4.952C165.145 4.73867 164.697 4.632 164.228 4.632C162.905 4.632 161.476 5.03733 159.94 5.848C158.404 6.616 156.825 7.64 155.204 8.92C153.625 10.2 152.089 11.608 150.596 13.144C149.145 14.6373 147.844 16.1307 146.692 17.624C145.54 19.0747 144.622 20.376 143.94 21.528C143.257 22.68 142.916 23.5547 142.916 24.152C142.916 24.7067 143.065 25.1333 143.364 25.432C143.705 25.688 144.174 25.816 144.772 25.816C146.052 25.816 147.417 25.496 148.868 24.856C150.361 24.216 151.833 23.4267 153.284 22.488C154.777 21.5067 156.164 20.5467 157.444 19.608C158.766 18.6267 159.876 17.7947 160.772 17.112C161.668 16.4293 162.265 16.0453 162.564 15.96C163.033 15.832 163.353 15.832 163.524 15.96C163.737 16.0453 163.673 16.1947 163.332 16.408C162.35 16.9627 161.326 17.9013 160.26 19.224C159.193 20.5467 158.062 22.0827 156.868 23.832C155.673 25.5813 154.372 27.3733 152.964 29.208C151.556 31.0427 150.02 32.7493 148.356 34.328C146.692 35.9067 144.857 37.1867 142.852 38.168C140.846 39.1067 138.628 39.576 136.196 39.576ZM175.39 27.8C175.219 28.1413 174.963 28.44 174.622 28.696C174.323 28.952 174.088 29.1227 173.918 29.208C173.79 29.2507 173.832 29.1227 174.046 28.824C174.814 27.8853 175.304 27.0107 175.518 26.2C175.774 25.3893 175.774 24.7493 175.518 24.28C175.304 23.768 174.878 23.512 174.238 23.512C173.384 23.512 172.382 23.8533 171.23 24.536C170.078 25.2187 168.883 26.1147 167.646 27.224C166.451 28.3333 165.32 29.528 164.254 30.808C163.23 32.0453 162.398 33.2613 161.758 34.456C161.117 35.608 160.797 36.6107 160.797 37.464C160.797 38.104 160.925 38.5093 161.181 38.68C161.438 38.8507 161.694 38.936 161.95 38.936C162.931 38.936 164.062 38.488 165.342 37.592C166.664 36.6533 168.008 35.48 169.374 34.072C170.739 32.664 172.04 31.2347 173.278 29.784C174.515 28.2907 175.582 26.9467 176.478 25.752C177.416 24.5573 178.056 23.7467 178.398 23.32C178.867 23.4907 179.422 23.5547 180.062 23.512C180.744 23.4693 181.32 23.4267 181.79 23.384C181.704 23.512 181.256 24.0453 180.446 24.984C179.678 25.9227 178.739 27.0533 177.63 28.376C176.563 29.656 175.475 30.9787 174.366 32.344C173.299 33.7093 172.403 34.904 171.678 35.928C170.952 36.952 170.59 37.6347 170.59 37.976C170.59 38.4027 170.675 38.68 170.845 38.808C171.059 38.8933 171.379 38.936 171.806 38.936C172.318 38.8933 173.064 38.6587 174.046 38.232C175.027 37.7627 176.286 36.8667 177.822 35.544C179.358 34.2213 181.214 32.2587 183.39 29.656C183.39 29.656 183.475 29.72 183.646 29.848C183.859 29.976 183.966 30.04 183.966 30.04C181.406 33.0267 179.038 35.3733 176.862 37.08C174.686 38.744 172.702 39.576 170.91 39.576C169.971 39.576 169.331 39.4267 168.99 39.128C168.691 38.8293 168.542 38.4027 168.542 37.848C168.542 37.4213 168.712 36.9093 169.054 36.312C169.438 35.672 169.864 35.0533 170.334 34.456C170.803 33.8587 171.187 33.3893 171.486 33.048C171.486 33.048 171.443 33.0267 171.358 32.984C171.272 32.9413 171.23 32.92 171.23 32.92C170.248 34.1147 169.203 35.224 168.094 36.248C166.984 37.272 165.875 38.0827 164.766 38.68C163.699 39.2773 162.654 39.576 161.63 39.576C160.563 39.576 159.816 39.32 159.389 38.808C158.963 38.2533 158.749 37.4213 158.749 36.312C158.749 35.2453 159.091 33.9653 159.773 32.472C160.456 30.936 161.438 29.4427 162.718 27.992C163.998 26.4987 165.534 25.2613 167.326 24.28C169.16 23.2987 171.208 22.808 173.47 22.808C174.579 22.808 175.347 23.0213 175.774 23.448C176.2 23.832 176.392 24.3013 176.35 24.856C176.307 25.4107 176.179 25.9653 175.966 26.52C175.752 27.0747 175.56 27.5013 175.39 27.8ZM182.875 30.616C182.704 30.7867 182.576 30.808 182.491 30.68C182.406 30.5093 182.384 30.3387 182.427 30.168C183.152 29.4427 183.856 28.5893 184.539 27.608C185.264 26.6267 185.862 25.7093 186.331 24.856C186.843 24.0027 187.142 23.4267 187.227 23.128C187.312 23.128 187.44 23.064 187.611 22.936C187.824 22.808 188.016 22.7653 188.187 22.808C188.144 23.1067 188.08 23.384 187.995 23.64C187.952 23.896 188.102 24.1307 188.443 24.344C188.784 24.5573 189.488 24.7707 190.555 24.984C191.622 25.1973 193.243 25.432 195.419 25.688C195.632 25.7307 195.782 25.816 195.867 25.944C195.995 26.0293 195.931 26.1787 195.675 26.392C194.864 27.032 193.968 27.8427 192.987 28.824C192.006 29.8053 191.046 30.8507 190.107 31.96C189.211 33.0267 188.464 34.072 187.867 35.096C187.312 36.12 187.035 36.9733 187.035 37.656C187.035 38.424 187.376 38.808 188.059 38.808C188.912 38.808 189.872 38.4667 190.939 37.784C192.048 37.1013 193.158 36.2693 194.267 35.288C195.376 34.264 196.4 33.24 197.339 32.216C198.32 31.1493 199.131 30.2747 199.771 29.592L200.283 29.976C199.686 30.5733 198.918 31.4053 197.979 32.472C197.04 33.5387 195.974 34.6267 194.779 35.736C193.627 36.8027 192.39 37.72 191.067 38.488C189.744 39.2133 188.379 39.576 186.971 39.576C186.16 39.576 185.435 39.384 184.795 39C184.155 38.6587 183.835 38.0187 183.835 37.08C183.835 36.184 184.219 35.2453 184.987 34.264C185.755 33.2827 186.715 32.3013 187.867 31.32C189.019 30.296 190.214 29.336 191.451 28.44C192.731 27.5013 193.862 26.648 194.843 25.88L195.291 26.456C194.864 26.2853 194.118 26.136 193.051 26.008C191.984 25.8373 190.875 25.624 189.723 25.368C188.571 25.0693 187.568 24.6853 186.715 24.216C185.904 23.7467 185.499 23.1067 185.499 22.296C185.499 21.8693 185.67 21.3573 186.011 20.76C186.395 20.12 186.907 19.8 187.547 19.8C188.144 19.8 188.55 19.928 188.763 20.184C188.976 20.3973 189.083 20.696 189.083 21.08C189.083 21.336 188.87 21.8693 188.443 22.68C188.016 23.448 187.483 24.3653 186.843 25.432C186.203 26.456 185.52 27.4373 184.795 28.376C184.112 29.3147 183.472 30.0613 182.875 30.616ZM199.764 39.576C198.569 39.576 197.737 39.2987 197.267 38.744C196.798 38.1467 196.563 37.2293 196.563 35.992C196.563 34.712 196.99 33.304 197.843 31.768C198.697 30.232 199.828 28.7813 201.236 27.416C202.686 26.008 204.308 24.856 206.1 23.96C207.892 23.064 209.726 22.616 211.604 22.616C212.628 22.616 213.332 22.8293 213.716 23.256C214.142 23.64 214.356 24.1093 214.356 24.664C214.398 25.2187 214.27 25.688 213.972 26.072C213.972 26.072 213.844 26.2 213.588 26.456C213.374 26.712 213.161 26.9893 212.948 27.288C212.734 27.544 212.628 27.672 212.628 27.672C213.481 26.1787 213.78 25.112 213.524 24.472C213.31 23.7893 212.713 23.448 211.732 23.448C211.006 23.448 210.089 23.7893 208.98 24.472C207.913 25.1547 206.761 26.0507 205.524 27.16C204.329 28.2693 203.198 29.464 202.132 30.744C201.065 32.024 200.19 33.2613 199.508 34.456C198.867 35.6507 198.547 36.6747 198.547 37.528C198.547 37.9547 198.697 38.2747 198.995 38.488C199.294 38.7013 199.678 38.808 200.148 38.808C200.788 38.808 201.534 38.552 202.388 38.04C203.241 37.528 204.116 36.888 205.012 36.12C205.908 35.352 206.74 34.584 207.508 33.816C208.276 33.048 208.894 32.3867 209.364 31.832C209.876 31.2773 210.153 30.9573 210.196 30.872C210.366 30.6587 210.857 29.9547 211.668 28.76C212.521 27.5653 213.588 26.072 214.868 24.28C216.148 22.488 217.513 20.5467 218.964 18.456C220.457 16.3227 221.929 14.2107 223.38 12.12C224.83 9.98667 226.174 8.04533 227.412 6.296C228.649 4.54666 229.652 3.11733 230.42 2.008C231.188 0.898665 231.614 0.301332 231.7 0.216C232.126 0.429333 232.532 0.578665 232.916 0.663998C233.342 0.706664 233.982 0.685331 234.836 0.599998C234.75 0.727999 234.238 1.45333 233.3 2.776C232.361 4.056 231.145 5.74133 229.652 7.832C228.158 9.92267 226.537 12.2053 224.788 14.68C223.038 17.1547 221.268 19.6293 219.476 22.104C217.726 24.5787 216.105 26.8613 214.612 28.952C213.118 31.0427 211.902 32.7493 210.964 34.072C210.025 35.352 209.513 36.056 209.428 36.184C209.257 36.44 209.065 36.7813 208.852 37.208C208.681 37.592 208.595 37.9547 208.595 38.296C208.595 38.6373 208.766 38.808 209.108 38.808C210.388 38.808 211.646 38.4453 212.884 37.72C214.164 36.952 215.358 36.0347 216.468 34.968C217.62 33.9013 218.622 32.8773 219.476 31.896C220.329 30.872 221.012 30.0827 221.524 29.528L222.036 29.912C221.566 30.5093 220.862 31.3413 219.924 32.408C218.985 33.4747 217.897 34.5627 216.66 35.672C215.465 36.7387 214.206 37.656 212.884 38.424C211.561 39.192 210.281 39.576 209.044 39.576C208.233 39.576 207.614 39.4267 207.188 39.128C206.761 38.872 206.548 38.5093 206.548 38.04C206.548 37.4853 206.74 36.8667 207.124 36.184C207.55 35.5013 207.998 34.8613 208.468 34.264C208.937 33.624 209.278 33.176 209.492 32.92C209.492 32.92 209.449 32.92 209.364 32.92C209.321 32.8773 209.3 32.856 209.3 32.856C209.257 32.8987 208.916 33.2613 208.276 33.944C207.678 34.6267 206.889 35.416 205.908 36.312C204.969 37.1653 203.966 37.9333 202.9 38.616C201.833 39.256 200.788 39.576 199.764 39.576ZM224.008 39.576C222.003 39.576 220.68 39.128 220.04 38.232C219.4 37.2933 219.08 36.312 219.08 35.288C219.08 33.5387 219.528 31.9173 220.424 30.424C221.32 28.888 222.472 27.5227 223.88 26.328C225.288 25.1333 226.739 24.216 228.232 23.576C229.768 22.8933 231.133 22.552 232.328 22.552C233.181 22.552 233.864 22.68 234.376 22.936C234.888 23.1493 235.144 23.6187 235.144 24.344C235.144 25.0267 234.739 25.752 233.928 26.52C233.117 27.288 232.093 28.0347 230.856 28.76C229.619 29.4427 228.317 30.0827 226.952 30.68C225.629 31.2347 224.413 31.6827 223.304 32.024C222.195 32.3653 221.384 32.536 220.872 32.536C220.872 32.536 220.872 32.4293 220.872 32.216C220.872 31.96 220.872 31.832 220.872 31.832C221.256 31.8747 221.917 31.7467 222.856 31.448C223.837 31.1493 224.925 30.7653 226.12 30.296C227.315 29.784 228.467 29.208 229.576 28.568C230.728 27.928 231.667 27.2453 232.392 26.52C233.16 25.7947 233.544 25.0907 233.544 24.408C233.544 24.0667 233.437 23.768 233.224 23.512C233.053 23.256 232.733 23.128 232.264 23.128C231.581 23.128 230.749 23.4693 229.768 24.152C228.829 24.792 227.869 25.6453 226.888 26.712C225.907 27.7787 224.989 28.9093 224.136 30.104C223.283 31.2987 222.579 32.4507 222.024 33.56C221.512 34.6267 221.256 35.5227 221.256 36.248C221.256 37.1013 221.512 37.7413 222.024 38.168C222.536 38.5947 223.283 38.808 224.264 38.808C225.971 38.808 227.571 38.4027 229.064 37.592C230.6 36.7387 231.987 35.7573 233.224 34.648C234.461 33.496 235.507 32.4293 236.36 31.448C237.213 30.424 237.789 29.7627 238.088 29.464C238.088 29.464 238.152 29.528 238.28 29.656C238.451 29.784 238.536 29.848 238.536 29.848C238.237 30.1893 237.661 30.872 236.808 31.896C235.955 32.92 234.888 34.0293 233.608 35.224C232.328 36.4187 230.877 37.4427 229.256 38.296C227.635 39.1493 225.885 39.576 224.008 39.576Z" fill="#570DCD"/>
</svg>
